<svg width="322" height="323" viewBox="0 0 322 323" fill="none" xmlns="http://www.w3.org/2000/svg">
<path d="M54.8752 48.2498H37.8221V55.4785H54.8752V48.2498Z" fill="#EBEBEB"/>
<path d="M45.3634 39.1348H28.3102V46.3635H45.3634V39.1348Z" fill="#EBEBEB"/>
<path d="M64.3871 39.1348H47.334V46.3635H64.3871V39.1348Z" fill="#EBEBEB"/>
<path d="M284.178 39.1348H267.125V46.3635H284.178V39.1348Z" fill="#EBEBEB"/>
<path d="M284.178 234.194H267.125V241.423H284.178V234.194Z" fill="#EBEBEB"/>
<path d="M293.69 225.079H276.637V232.308H293.69V225.079Z" fill="#EBEBEB"/>
<path d="M45.3634 234.188H28.3102V241.417H45.3634V234.188Z" fill="#EBEBEB"/>
<path d="M75.2965 155.408H92.3496V148.179H75.2965V155.408Z" fill="#EBEBEB"/>
<path d="M84.8084 164.523H101.861V157.294H84.8084V164.523Z" fill="#EBEBEB"/>
<path d="M54.3858 0H53.6259V70.5109H54.3858V0Z" fill="#C7C7C7"/>
<path d="M76.1788 91.9516L74.3949 95.8857H33.6104L31.8329 91.9516L49.1952 79.8972H58.8165L76.1788 91.9516Z" fill="#EBEBEB"/>
<path d="M60.0208 68.2822L58.8165 79.8973H49.1952L47.9909 68.2822H60.0208Z" fill="#DBDBDB"/>
<path d="M76.1788 91.958L74.3949 95.8857H33.6104L31.8329 91.958H76.1788Z" fill="#DBDBDB"/>
<path d="M108.012 0H107.252V57.8235H108.012V0Z" fill="#C7C7C7"/>
<path d="M129.805 79.2643L128.021 83.1985H87.2363L85.4588 79.2643L102.821 67.21H112.442L129.805 79.2643Z" fill="#EBEBEB"/>
<path d="M113.647 55.5947L112.442 67.2098H102.821L101.617 55.5947H113.647Z" fill="#DBDBDB"/>
<path d="M129.805 79.2708L128.021 83.1984H87.2363L85.4588 79.2708H129.805Z" fill="#DBDBDB"/>
<path d="M274.37 50.7368H232.516V92.7204H274.37V50.7368Z" fill="white"/>
<path d="M230.339 48.5535V94.904H276.546V48.5535H230.339ZM274.344 92.7205H232.484V50.7305H274.344V92.7205Z" fill="#DBDBDB"/>
<path d="M271.362 84.5871V70.0715H238.744V84.5871H271.362Z" fill="#EBEBEB"/>
<path d="M261.799 80.1104V63.3467H245.087V80.1104H261.799Z" fill="#C7C7C7"/>
<path d="M278.33 48.5535H276.546V94.904H278.33V48.5535Z" fill="#C7C7C7"/>
<path d="M274.37 110.35H232.516V152.333H274.37V110.35Z" fill="white"/>
<path d="M250.638 117.068H239.71V148.735H250.638V117.068Z" fill="#C7C7C7"/>
<path d="M230.339 108.166V154.517H276.546V108.166H230.339ZM274.344 152.333H232.484V110.343H274.344V152.333Z" fill="#DBDBDB"/>
<path d="M261.799 122.96H245.087V139.723H261.799V122.96Z" fill="#EBEBEB"/>
<path d="M278.33 108.166H276.546V154.517H278.33V108.166Z" fill="#C7C7C7"/>
<path d="M274.37 169.963H232.516V211.946H274.37V169.963Z" fill="white"/>
<path d="M260.124 175.686H237.159V189.459H260.124V175.686Z" fill="#EBEBEB"/>
<path d="M230.339 167.779V214.13H276.546V167.779H230.339ZM274.344 211.946H232.484V169.956H274.344V211.946Z" fill="#DBDBDB"/>
<path d="M261.799 182.573H245.087V199.336H261.799V182.573Z" fill="#C7C7C7"/>
<path d="M278.33 167.779H276.546V214.13H278.33V167.779Z" fill="#C7C7C7"/>
<path d="M211.689 297.961C254.373 297.961 288.976 294.013 288.976 289.143C288.976 284.273 254.373 280.325 211.689 280.325C169.005 280.325 134.403 284.273 134.403 289.143C134.403 294.013 169.005 297.961 211.689 297.961Z" fill="#EBEBEB"/>
<path d="M19.7515 279.072L55.062 278.917L90.379 278.859L161 278.749L231.621 278.859L266.938 278.911L302.249 279.072L266.938 279.227L231.621 279.285L161 279.395L90.379 279.285L55.062 279.227L19.7515 279.072Z" fill="#263238"/>
<path d="M174.601 279.072H118.638C116.873 260.041 115.102 240.538 113.698 224.989C113.653 224.472 113.602 223.955 113.557 223.445C111.972 205.854 110.897 193.697 110.897 193.697H163.705C163.709 193.75 163.709 193.804 163.705 193.858C164.098 196.739 169.475 238.781 174.601 279.072Z" fill="#37474F"/>
<path d="M127.119 279.072H126.224C123.783 258.464 121.8 237.818 119.997 217.146C119.893 215.91 119.786 214.672 119.675 213.432C119.314 209.188 118.953 204.924 118.605 200.673C118.605 200.544 118.792 200.544 118.812 200.673C119.207 204.442 119.589 208.201 119.958 211.952C119.961 211.963 119.961 211.974 119.958 211.985C120.087 213.354 120.228 214.717 120.364 216.093C121.8 230.357 123.223 244.608 124.781 258.852C125.524 265.601 126.303 272.341 127.119 279.072Z" fill="#263238"/>
<path d="M156.08 193.696L148.996 240.674L148.745 242.263L148.101 246.494L148.049 246.791L147.882 247.928L143.168 279.072H113.106C110.021 261.63 106.865 243.749 104.251 228.91C104.193 228.574 104.135 228.264 104.077 227.928C100.554 207.96 98.0361 193.69 98.0361 193.69L156.08 193.696Z" fill="#263238"/>
<path d="M163.756 193.651C163.756 193.651 163.756 193.716 163.724 193.858C163.306 196.597 158.759 225.971 151.205 245.247C151.153 245.409 151.095 245.557 151.024 245.725C151.024 245.725 149.962 246.055 148.043 246.817C147.296 247.114 146.407 247.463 145.402 247.915L144.308 248.406C142.092 249.401 139.407 250.706 136.341 252.373C136.045 252.528 135.755 252.689 135.465 252.851C135.465 252.851 135.465 252.973 135.465 253.199C135.311 255.221 134.525 265.596 133.533 279.039H80.8156C84.8728 237.095 89.3292 193.619 89.3292 193.619L163.756 193.651Z" fill="#37474F"/>
<path d="M95.2283 201.823C93.7278 221.5 92.2916 241.178 90.7203 260.829C90.2308 266.91 89.7285 272.991 89.2133 279.072H88.4405C90.6688 253.327 92.7875 227.581 94.7968 201.836C94.8097 201.552 95.2476 201.552 95.2283 201.823Z" fill="#263238"/>
<path d="M153.691 244.343C147.381 246.647 141.283 249.495 135.465 252.857C135.44 252.868 135.418 252.884 135.399 252.904C135.38 252.924 135.365 252.947 135.356 252.973C135.346 252.998 135.341 253.025 135.342 253.053C135.342 253.08 135.348 253.107 135.359 253.132C135.37 253.157 135.386 253.18 135.406 253.198C135.425 253.217 135.449 253.232 135.474 253.242C135.499 253.252 135.527 253.257 135.554 253.256C135.581 253.255 135.608 253.25 135.633 253.238C141.77 250.59 148.03 248.07 154.019 245.079C154.116 245.036 154.192 244.955 154.23 244.855C154.269 244.755 154.265 244.644 154.222 244.547C154.178 244.449 154.098 244.373 153.998 244.334C153.899 244.296 153.788 244.299 153.691 244.343Z" fill="#263238"/>
<path d="M155.642 202.082C155.642 201.868 155.249 201.823 155.256 202.082C155.301 209.394 154.837 215.822 154.225 222.657C153.935 225.829 151.392 243.361 145.911 242.082C144.99 241.869 144.52 240.964 144.378 239.575C144.204 237.909 144.829 235.861 145.106 234.201C145.75 230.525 146.207 226.843 146.516 223.141C147.155 216.238 147.082 209.286 146.297 202.398C146.29 202.357 146.268 202.32 146.235 202.293C146.203 202.266 146.162 202.251 146.12 202.251C146.078 202.251 146.038 202.266 146.005 202.293C145.973 202.32 145.951 202.357 145.943 202.398C145.943 211.978 145.699 221.539 144.269 231.029C143.586 235.59 141.294 242.457 146.053 243.154C150.812 243.852 154.025 232.372 154.618 229.226C156.267 220.441 156.331 210.964 155.642 202.082Z" fill="#263238"/>
<path d="M146.053 242.528C145.566 243.713 145.155 244.927 144.823 246.165C144.468 247.119 144.293 248.131 144.308 249.149C144.316 249.19 144.335 249.227 144.364 249.257C144.393 249.286 144.43 249.307 144.47 249.316C144.51 249.324 144.552 249.321 144.591 249.307C144.63 249.292 144.663 249.267 144.688 249.233C145.261 248.335 145.695 247.355 145.976 246.326C146.394 245.202 146.832 244.085 147.218 242.948C147.228 242.808 147.191 242.668 147.115 242.551C147.038 242.433 146.925 242.344 146.794 242.297C146.662 242.249 146.518 242.246 146.385 242.288C146.251 242.329 146.134 242.414 146.053 242.528Z" fill="#263238"/>
<path d="M121.239 207.818C121.25 207.054 121.172 206.291 121.008 205.544C121.002 205.519 120.987 205.496 120.967 205.48C120.946 205.464 120.921 205.455 120.895 205.455C120.869 205.455 120.844 205.464 120.823 205.48C120.803 205.496 120.788 205.519 120.782 205.544C120.629 206.179 120.545 206.829 120.531 207.482C120.454 208.238 120.351 208.987 120.273 209.743C120.109 211.286 119.84 212.817 119.468 214.323C118.776 217.173 117.33 219.782 115.282 221.875C113.246 223.88 110.84 225.469 108.198 226.552C105.255 227.805 102.151 228.27 99.1116 229.168C98.9828 229.201 99.0214 229.388 99.1116 229.394C102.487 229.386 105.83 228.728 108.958 227.456C111.722 226.414 114.238 224.803 116.345 222.728C118.459 220.587 119.947 217.906 120.647 214.976C120.999 213.469 121.197 211.93 121.239 210.383C121.29 209.529 121.29 208.672 121.239 207.818Z" fill="#263238"/>
<path d="M141.12 125.97C145.364 135.505 176.256 179.678 201.083 185.014C205.269 185.912 218.258 190.034 225.774 179.265C235.929 164.723 242.408 136.874 240.985 122.023C239.806 109.749 206.35 118.954 204.38 125.944C202.892 131.235 200.245 148.593 199.163 148.315C192.131 146.493 171.182 128.289 150.303 117.081C140.624 111.848 137.855 118.599 141.12 125.97Z" fill="#AD6359"/>
<path d="M197.109 155.86C197.254 154.774 197.454 153.696 197.708 152.63C198.241 150.576 198.961 148.576 199.859 146.655C199.898 146.571 200.052 146.622 200.02 146.719C199.376 148.703 198.906 150.763 198.378 152.785C198.12 153.793 197.875 154.794 197.65 155.809C197.425 156.823 197.141 157.876 196.967 158.922C196.967 158.98 196.851 158.974 196.858 158.922C196.929 157.882 196.967 156.874 197.109 155.86Z" fill="#263238"/>
<path d="M241.139 124.29C241.139 124.29 240.586 108.205 234.835 97.5072C230.861 90.1105 220.422 74.9877 195.441 74.0187C189.516 73.7926 180.906 77.6815 190.45 81.5769C197.231 84.3482 202.364 84.0511 206.016 86.3831C206.016 86.3831 195.654 92.6364 195.654 98.599C195.654 101.267 195.261 107.042 196.201 112.688C196.201 112.688 198.049 114.31 199.692 114.239C199.692 114.239 199.872 119.82 206.132 125.582L241.139 124.29Z" fill="#AD6359"/>
<path d="M164.864 90.7306C161.824 92.7849 160.163 97.6363 162.61 102.249C165.057 106.861 171.252 106.273 174.202 104.251C177.152 102.229 179.644 97.1841 177.126 92.8818C174.994 89.1479 170.216 87.1324 164.864 90.7306Z" fill="#6FC886"/>
<path opacity="0.1" d="M164.864 90.7306C161.824 92.7849 160.163 97.6363 162.61 102.249C165.057 106.861 171.252 106.273 174.202 104.251C177.152 102.229 179.644 97.1841 177.126 92.8818C174.994 89.1479 170.216 87.1324 164.864 90.7306Z" fill="black"/>
<path d="M165.791 91.9385C163.312 93.6117 161.96 97.5781 163.956 101.344C165.952 105.11 171.04 104.632 173.436 102.979C175.831 101.325 177.886 97.2099 175.831 93.6892C174.054 90.6401 170.151 88.9992 165.791 91.9385Z" fill="#6FC886"/>
<path d="M170.982 94.0316C171.201 94.206 171.987 93.5471 171.555 93.2371C171.124 92.927 170.699 93.812 170.982 94.0316Z" fill="white"/>
<path d="M172.817 98.3534C172.708 98.6053 173.539 99.2061 173.732 98.7087C173.925 98.2113 172.966 98.0175 172.817 98.3534Z" fill="white"/>
<path d="M174.659 96.6737C174.704 96.945 175.728 96.9902 175.619 96.467C175.509 95.9437 174.601 96.3119 174.659 96.6737Z" fill="white"/>
<path d="M170.93 92.1388C171.201 92.0936 171.252 91.0729 170.731 91.1763C170.209 91.2797 170.57 92.197 170.93 92.1388Z" fill="white"/>
<path d="M166.03 95.7177C166.1 95.4529 165.186 94.9878 165.07 95.511C164.954 96.0343 165.933 96.073 166.03 95.7177Z" fill="white"/>
<path d="M168.219 101.422C167.994 101.26 167.24 101.952 167.685 102.242C168.129 102.533 168.515 101.641 168.219 101.422Z" fill="white"/>
<path d="M170.016 101.079C169.746 101.034 169.372 101.99 169.9 102.055C170.428 102.119 170.377 101.138 170.016 101.079Z" fill="white"/>
<path d="M168.129 97.0356C168.322 96.8418 167.756 95.9826 167.401 96.3896C167.047 96.7966 167.872 97.294 168.129 97.0356Z" fill="white"/>
<path d="M162.616 97.7461C162.616 97.7461 167.607 97.1905 168.264 98.2047C168.921 99.219 165.373 103.676 164.787 103.282C164.201 102.888 162.075 99.4386 162.616 97.7461Z" fill="#6FC886"/>
<path opacity="0.1" d="M162.616 97.7461C162.616 97.7461 167.607 97.1905 168.264 98.2047C168.921 99.219 165.373 103.676 164.787 103.282C164.201 102.888 162.075 99.4386 162.616 97.7461Z" fill="black"/>
<path d="M171.149 104.387C171.149 104.387 169.675 99.5678 170.551 98.7345C171.426 97.9011 176.443 100.563 176.173 101.215C175.902 101.868 172.908 104.6 171.149 104.387Z" fill="#6FC886"/>
<path opacity="0.1" d="M171.149 104.387C171.149 104.387 169.675 99.5678 170.551 98.7345C171.426 97.9011 176.443 100.563 176.173 101.215C175.902 101.868 172.908 104.6 171.149 104.387Z" fill="black"/>
<path d="M177.506 95.511C177.506 95.511 172.624 96.6996 171.845 95.7758C171.066 94.8521 174.015 89.9618 174.646 90.2978C175.277 90.6337 177.821 93.7603 177.506 95.511Z" fill="#6FC886"/>
<path opacity="0.1" d="M177.506 95.511C177.506 95.511 172.624 96.6996 171.845 95.7758C171.066 94.8521 174.015 89.9618 174.646 90.2978C175.277 90.6337 177.821 93.7603 177.506 95.511Z" fill="black"/>
<path d="M169.23 89.6518C169.23 89.6518 170.422 94.5485 169.501 95.3302C168.58 96.1119 163.705 93.1532 164.033 92.5201C164.362 91.887 167.492 89.3288 169.23 89.6518Z" fill="#6FC886"/>
<path opacity="0.1" d="M169.23 89.6518C169.23 89.6518 170.422 94.5485 169.501 95.3302C168.58 96.1119 163.705 93.1532 164.033 92.5201C164.362 91.887 167.492 89.3288 169.23 89.6518Z" fill="black"/>
<path d="M179.489 97.8624C177.139 98.7603 165.888 101.008 165.888 101.008L166.107 100.472L178.169 96.7061C178.256 96.6725 178.327 96.6072 178.367 96.5233C178.408 96.4393 178.415 96.343 178.388 96.2539C178.374 96.207 178.351 96.1634 178.32 96.1258C178.289 96.0882 178.25 96.0573 178.207 96.0349C178.164 96.0126 178.116 95.9993 178.068 95.9959C178.019 95.9924 177.97 95.9989 177.924 96.0148L166.648 99.1156L167.002 98.2565L179.341 94.2125C179.393 94.2031 179.443 94.1828 179.486 94.1528C179.53 94.1228 179.567 94.0838 179.594 94.0385C179.622 93.9932 179.639 93.9425 179.646 93.8899C179.652 93.8372 179.648 93.7838 179.632 93.7331C179.616 93.6824 179.59 93.6356 179.555 93.5958C179.52 93.556 179.477 93.5241 179.429 93.5023C179.381 93.4804 179.329 93.4691 179.276 93.469C179.223 93.469 179.17 93.4802 179.122 93.5019L167.575 96.874L167.917 96.0536L180.539 91.6996C180.586 91.6864 180.63 91.6636 180.669 91.6327C180.707 91.6018 180.738 91.5634 180.761 91.5199C180.784 91.4763 180.798 91.4286 180.802 91.3795C180.806 91.3304 180.8 91.281 180.784 91.2344C180.771 91.1878 180.748 91.1444 180.718 91.1068C180.687 91.0692 180.649 91.0383 180.607 91.0159C180.564 90.9935 180.517 90.9802 180.469 90.9766C180.42 90.9731 180.372 90.9795 180.326 90.9954L168.477 94.6841L168.767 93.9864C168.767 93.9864 180.642 89.3869 182.046 89.1156C184.577 88.6181 183.051 96.5058 179.489 97.8624Z" fill="#455A64"/>
<path d="M182.104 91.3379C183.753 90.5821 190.521 87.5911 191.32 87.281C192.247 86.9193 225.046 74.122 226.353 74.0833C227.66 74.0445 227.068 78.5471 226.315 79.4967C225.561 80.4463 194.488 89.0317 191.358 90.272C188.08 91.564 181.917 94.148 181.917 94.148L182.104 91.3379Z" fill="#455A64"/>
<path d="M233.038 96.6737C229.477 94.0897 221.826 88.786 214.059 86.6155C205.436 84.2059 188.177 81.8997 186.47 88.3015C185.214 92.9979 191.732 94.4643 191.732 94.4643C191.732 94.4643 184.397 95.0134 184.19 99.5031C184.004 103.599 189.104 104.426 189.104 104.426C189.104 104.426 184.712 105.53 185.292 109.51C185.987 114.29 195.074 111.189 199.949 115.427C201.044 116.377 233.038 96.6737 233.038 96.6737Z" fill="#AD6359"/>
<path d="M213.042 96.1829C209.3 94.316 199.698 92.2682 191.861 94.316C191.68 94.3612 191.622 94.5227 191.79 94.5162C198.917 94.2249 206.054 94.8063 213.042 96.2475C213.067 96.254 213.087 96.2023 213.042 96.1829Z" fill="#263238"/>
<path d="M210.369 104.846C206.969 103.554 196.98 101.9 189.117 104.264C188.937 104.316 188.892 104.477 189.059 104.464C196.153 103.809 203.297 103.963 210.356 104.923C210.395 104.936 210.408 104.859 210.369 104.846Z" fill="#263238"/>
<path d="M162.417 158.018L195.132 140.505C195.132 140.505 162.707 120.686 147.746 114.988C132.155 109.025 126.256 113.412 140.295 130.531C154.122 147.366 162.417 158.018 162.417 158.018Z" fill="#6FC886"/>
<path d="M192.446 138.89C191.821 139.056 191.209 139.272 190.618 139.536C189.739 139.917 188.917 140.419 188.177 141.028C189.123 140.887 190.044 140.613 190.914 140.214C191.595 139.92 192.242 139.554 192.846 139.122C192.711 139.058 192.556 138.974 192.446 138.89ZM157.98 143.78C157.1 144.156 156.28 144.659 155.545 145.272C156.489 145.129 157.409 144.853 158.276 144.452C159.157 144.078 159.979 143.577 160.717 142.966C159.769 143.101 158.847 143.376 157.98 143.78ZM173.474 146.726C173.099 145.845 172.6 145.023 171.993 144.284C172.132 145.233 172.405 146.158 172.805 147.029C173.177 147.909 173.676 148.73 174.286 149.465C174.149 148.517 173.876 147.594 173.474 146.726ZM145.544 132.591C145.164 131.714 144.663 130.894 144.056 130.156C144.198 131.103 144.474 132.025 144.874 132.895C145.246 133.778 145.745 134.6 146.355 135.337C146.217 134.388 145.943 133.463 145.544 132.591ZM137.816 119.129C136.929 118.781 135.996 118.563 135.047 118.483C135.813 119.054 136.657 119.513 137.552 119.846C138.44 120.19 139.373 120.407 140.321 120.492C139.555 119.921 138.711 119.462 137.816 119.129ZM160.311 128.819C159.423 128.46 158.488 128.231 157.535 128.14C158.303 128.715 159.149 129.176 160.047 129.51C160.935 129.854 161.867 130.071 162.816 130.156C162.065 129.585 161.236 129.124 160.356 128.786L160.311 128.819ZM152.358 116.926C152.016 117.784 151.799 118.687 151.714 119.607C152.256 118.881 152.69 118.08 153.002 117.229L152.358 116.926ZM174.653 133.877C174.31 134.768 174.093 135.703 174.009 136.655C175.133 135.098 175.832 133.275 176.037 131.364C175.461 132.125 174.994 132.965 174.653 133.857V133.877Z" fill="white"/>
<path d="M161.644 151.164C162.372 150.66 163.183 150.253 163.95 149.814C164.716 149.374 165.534 148.916 166.326 148.464C167.936 147.553 169.546 146.668 171.182 145.789C174.402 144.038 177.667 142.268 180.945 140.576C181.846 140.104 182.748 139.646 183.662 139.2C184.577 138.754 185.594 138.334 186.573 137.869C186.584 137.868 186.595 137.871 186.604 137.876C186.614 137.882 186.621 137.89 186.625 137.9C186.63 137.91 186.631 137.921 186.628 137.932C186.626 137.943 186.62 137.952 186.612 137.96C185.826 138.418 185.066 138.948 184.281 139.407C183.495 139.865 182.651 140.35 181.833 140.802C180.219 141.693 178.594 142.57 176.958 143.431C173.738 145.137 170.518 146.855 167.298 148.489L164.542 149.872C163.595 150.35 162.655 150.886 161.663 151.274C161.644 151.293 161.567 151.222 161.644 151.164Z" fill="#263238"/>
<path d="M140.295 130.492C154.122 147.359 162.417 158.005 162.417 158.005L172.869 152.411L133.585 113.379C130.874 115.466 132.542 121.041 140.295 130.492Z" fill="#263238"/>
<path d="M169.868 222.379L83.1597 227.87C83.1597 227.87 91.1904 144.058 121.362 113.638C125.091 109.884 134.049 110.117 140.038 112.649C142.182 113.547 150.29 123.534 153.034 133.321C155.777 143.108 170.08 222.069 169.868 222.379Z" fill="#6FC886"/>
<path d="M112.855 138.244C111.975 138.621 111.153 139.121 110.414 139.73C111.363 139.587 112.285 139.304 113.151 138.89C114.032 138.516 114.854 138.015 115.592 137.404C114.644 137.553 113.723 137.835 112.855 138.244ZM155.648 145.221C155.611 145.245 155.577 145.273 155.545 145.305C155.582 145.308 155.618 145.308 155.655 145.305C155.655 145.305 155.648 145.208 155.648 145.188V145.221ZM133.952 159.704C133.072 160.08 132.25 160.581 131.511 161.19C132.457 161.048 133.378 160.774 134.248 160.376C135.126 160 135.946 159.5 136.683 158.89C135.737 159.025 134.817 159.299 133.952 159.704ZM124.421 196.487C123.543 196.866 122.723 197.368 121.986 197.979C122.933 197.843 123.856 197.569 124.723 197.165C125.601 196.785 126.42 196.283 127.158 195.673C126.211 195.812 125.29 196.086 124.421 196.487ZM103.001 172.585C102.126 172.966 101.306 173.466 100.567 174.071C101.514 173.935 102.436 173.661 103.304 173.257C104.181 172.879 105.001 172.379 105.738 171.771C104.79 171.921 103.869 172.206 103.001 172.617V172.585ZM88.3632 223.832C87.4846 224.207 86.6647 224.708 85.9289 225.318C86.8759 225.182 87.798 224.908 88.6659 224.504C89.544 224.125 90.3637 223.623 91.1002 223.012C90.1511 223.16 89.2288 223.447 88.3632 223.865V223.832ZM126.462 218.27C125.584 218.646 124.764 219.146 124.028 219.756C124.974 219.617 125.896 219.343 126.765 218.942C127.642 218.561 128.461 218.059 129.199 217.45C128.25 217.595 127.327 217.883 126.462 218.303V218.27ZM169.372 219.136C168.763 219.302 168.168 219.518 167.595 219.782C166.719 220.163 165.9 220.663 165.16 221.268C166.107 221.131 167.029 220.857 167.897 220.454C168.436 220.213 168.956 219.935 169.456 219.62C169.417 219.452 169.372 219.291 169.372 219.136ZM149.788 193.897C148.908 194.275 148.086 194.778 147.347 195.389C148.282 195.246 149.193 194.972 150.052 194.575C150.933 194.198 151.755 193.695 152.493 193.083C151.553 193.222 150.637 193.496 149.775 193.897H149.788ZM120.943 124.219C120.567 123.338 120.066 122.515 119.456 121.777C119.596 122.724 119.87 123.646 120.267 124.516C120.643 125.4 121.144 126.224 121.755 126.965C121.618 126.015 121.344 125.09 120.943 124.219ZM107.979 222.766C107.606 221.883 107.107 221.058 106.498 220.318C106.635 221.268 106.908 222.193 107.31 223.064C107.685 223.946 108.184 224.771 108.791 225.512C108.66 224.561 108.386 223.635 107.979 222.766ZM102.654 198.768C102.274 197.889 101.771 197.068 101.16 196.332C101.301 197.279 101.574 198.201 101.971 199.071C102.348 199.954 102.851 200.776 103.465 201.513C103.323 200.565 103.05 199.641 102.654 198.768ZM134.738 182.282C134.359 181.401 133.861 180.577 133.256 179.833C133.39 180.784 133.664 181.709 134.068 182.579C134.441 183.463 134.94 184.287 135.549 185.027C135.408 184.078 135.135 183.154 134.738 182.282ZM121.111 151.92C120.733 151.037 120.232 150.212 119.623 149.471C119.757 150.422 120.03 151.347 120.434 152.217C120.81 153.1 121.311 153.925 121.922 154.665C121.782 153.726 121.509 152.813 121.111 151.952V151.92ZM141.545 221.791C141.66 222.586 141.876 223.364 142.189 224.104L142.962 224.052C142.587 223.251 142.111 222.502 141.545 221.823V221.791ZM164.986 202.198C164.608 201.316 164.105 200.494 163.492 199.756C163.638 200.702 163.911 201.623 164.304 202.495C164.682 203.375 165.183 204.197 165.791 204.937C165.655 203.99 165.384 203.068 164.986 202.198ZM145.544 132.591C145.164 131.714 144.663 130.894 144.056 130.156C144.198 131.103 144.474 132.025 144.874 132.895C145.246 133.778 145.745 134.6 146.355 135.337C146.217 134.388 145.943 133.463 145.544 132.591ZM137.816 119.129C136.929 118.781 135.996 118.563 135.047 118.483C135.813 119.054 136.657 119.513 137.552 119.846C138.44 120.19 139.373 120.407 140.321 120.492C139.555 119.921 138.711 119.462 137.816 119.129ZM113.537 186.08C112.653 185.718 111.719 185.489 110.768 185.402C111.537 185.975 112.382 186.436 113.28 186.771C114.169 187.113 115.101 187.331 116.049 187.417C115.289 186.853 114.452 186.402 113.563 186.08H113.537ZM92.5428 210.163C91.6547 209.805 90.7199 209.576 89.7672 209.485C91.3203 210.613 93.1409 211.315 95.048 211.52C94.2891 210.953 93.4544 210.496 92.5686 210.163H92.5428ZM151.527 212.101C150.639 211.743 149.704 211.514 148.751 211.423C150.304 212.551 152.125 213.253 154.032 213.458C153.272 212.892 152.438 212.435 151.553 212.101H151.527ZM147.399 176.274C146.512 175.924 145.579 175.706 144.63 175.628C145.395 176.201 146.238 176.66 147.135 176.991C148.022 177.344 148.954 177.572 149.904 177.669C149.15 177.085 148.315 176.614 147.424 176.274H147.399ZM139.516 146.144C138.63 145.793 137.697 145.576 136.747 145.498C137.512 146.07 138.356 146.527 139.252 146.855C140.138 147.213 141.071 147.441 142.021 147.533C141.268 146.95 140.432 146.482 139.542 146.144H139.516ZM104.328 156.855C103.979 157.744 103.762 158.68 103.684 159.633C104.799 158.07 105.498 156.246 105.713 154.336C105.129 155.102 104.663 155.951 104.328 156.855ZM136.277 205.118C135.928 206.007 135.711 206.943 135.633 207.896C136.204 207.127 136.664 206.281 136.998 205.383C137.338 204.49 137.555 203.556 137.642 202.605C137.072 203.372 136.616 204.218 136.29 205.118H136.277ZM151.127 159.788C150.778 160.682 150.561 161.622 150.483 162.579C151.607 161.017 152.307 159.19 152.512 157.275C151.937 158.042 151.475 158.889 151.14 159.788H151.127ZM114.658 209.071C114.309 209.963 114.092 210.901 114.014 211.856C114.582 211.081 115.039 210.231 115.373 209.33C115.716 208.439 115.933 207.504 116.017 206.552C115.449 207.322 114.996 208.171 114.671 209.071H114.658ZM90.5593 186.287C90.2155 187.18 89.9987 188.117 89.9153 189.071C90.4882 188.302 90.946 187.453 91.2741 186.552C91.6242 185.663 91.8412 184.727 91.9181 183.774C91.357 184.546 90.9041 185.391 90.5722 186.287H90.5593ZM120.428 170.822C120.076 171.712 119.859 172.651 119.784 173.606C120.907 172.046 121.606 170.221 121.813 168.309C121.231 169.074 120.764 169.92 120.428 170.822ZM129.496 134.762C129.156 135.656 128.94 136.593 128.852 137.546C129.424 136.778 129.884 135.932 130.217 135.033C130.56 134.14 130.777 133.203 130.861 132.249C130.293 133.019 129.836 133.865 129.502 134.762H129.496Z" fill="white"/>
<path d="M122.618 116.054C124.731 120.901 128.083 125.101 132.336 128.231C134.411 129.835 136.841 130.916 139.42 131.383C140.776 131.652 142.181 131.51 143.457 130.976C144.642 130.332 145.642 129.393 146.362 128.25C147.198 126.986 147.837 125.6 148.255 124.142C148.746 122.511 149.118 120.846 149.369 119.161C149.366 119.153 149.366 119.145 149.367 119.137C149.368 119.128 149.371 119.12 149.375 119.114C149.38 119.107 149.386 119.101 149.394 119.097C149.401 119.093 149.409 119.091 149.418 119.091C149.426 119.091 149.434 119.093 149.442 119.097C149.449 119.101 149.455 119.107 149.46 119.114C149.465 119.12 149.468 119.128 149.469 119.137C149.47 119.145 149.469 119.153 149.466 119.161C149.234 120.757 149.131 122.391 148.777 123.941C148.485 125.342 148.009 126.698 147.36 127.972C146.737 129.197 145.859 130.272 144.784 131.125C143.627 131.978 142.213 132.406 140.778 132.339C137.982 132.209 135.281 131.286 132.986 129.678C130.703 128.169 128.669 126.312 126.958 124.174C125.016 121.749 123.492 119.015 122.45 116.086C122.446 116.064 122.451 116.041 122.463 116.022C122.476 116.003 122.496 115.99 122.518 115.986C122.54 115.982 122.563 115.986 122.582 115.999C122.6 116.012 122.613 116.031 122.618 116.054Z" fill="#263238"/>
<path d="M141.551 128.47C136.476 129.323 128.394 121.093 125.413 114.658C125.213 114.219 126.153 109.768 127.048 104.322C127.576 101.008 128.092 97.3068 128.336 93.896C128.381 93.1918 149.331 100.498 149.331 100.498C149.331 100.498 146.755 107.514 146.407 113.463C146.387 113.934 146.406 114.405 146.465 114.872C146.469 114.949 146.469 115.027 146.465 115.104C146.71 117.785 146.458 127.637 141.551 128.47Z" fill="#AD6359"/>
<path d="M144.256 115.072C144.987 115.136 145.721 115.136 146.452 115.072C146.452 114.982 146.452 114.904 146.452 114.839C146.389 114.373 146.372 113.901 146.401 113.431C146.755 107.481 149.311 100.472 149.311 100.472C149.311 100.472 132.31 94.5356 128.909 93.8767C129.302 97.8819 131.698 113.961 144.256 115.072Z" fill="#263238"/>
<path d="M125.297 70.5495C123.068 78.1659 127.325 100.13 132.773 104.93C140.669 111.939 153.472 112.468 159.377 102.992C165.102 93.7926 159.049 65.3299 152.976 60.95C144.037 54.4771 128.581 59.2768 125.297 70.5495Z" fill="#AD6359"/>
<path d="M146.098 83.8765C146.098 83.8184 146.001 83.967 146.014 84.0251C146.336 85.498 146.465 87.2551 145.228 87.9786C145.19 87.9786 145.228 88.0755 145.228 88.0562C146.832 87.52 146.645 85.2138 146.098 83.8765Z" fill="#263238"/>
<path d="M144.494 82.5844C142.092 82.8557 142.807 87.6555 145.035 87.4036C147.263 87.1516 146.51 82.3583 144.494 82.5844Z" fill="#263238"/>
<path d="M155.165 82.3131C155.165 82.255 155.294 82.3648 155.301 82.4229C155.474 83.9217 155.945 85.6013 157.342 85.892C157.387 85.892 157.394 85.9759 157.342 85.9759C155.668 85.9953 155.095 83.7537 155.165 82.3131Z" fill="#263238"/>
<path d="M156.26 80.5561C158.617 80.02 159.519 84.7875 157.336 85.2913C155.152 85.7952 154.283 81.0083 156.26 80.5561Z" fill="#263238"/>
<path d="M142.279 80.6723C142.878 80.3896 143.463 80.077 144.031 79.7356C144.694 79.4936 145.26 79.0396 145.641 78.4436C145.724 78.2326 145.735 77.9999 145.674 77.7816C145.612 77.5633 145.48 77.3714 145.299 77.2355C144.481 76.7058 143.554 76.9513 142.723 77.3583C141.875 77.7446 141.201 78.4361 140.836 79.2963C140.768 79.4952 140.759 79.7095 140.808 79.9138C140.858 80.1181 140.965 80.3037 141.117 80.4486C141.269 80.5936 141.46 80.6917 141.665 80.7313C141.871 80.771 142.084 80.7505 142.279 80.6723Z" fill="#263238"/>
<path d="M157.78 77.8622C157.118 77.8286 156.458 77.7596 155.803 77.6555C155.098 77.6771 154.406 77.466 153.832 77.0547C153.676 76.8909 153.578 76.6793 153.555 76.4535C153.531 76.2277 153.584 76.0005 153.703 75.808C154.264 75.0134 155.217 74.8906 156.131 74.9552C157.058 74.9992 157.935 75.3832 158.598 76.0341C158.738 76.1923 158.83 76.3878 158.862 76.5971C158.894 76.8063 158.865 77.0205 158.779 77.2137C158.692 77.4068 158.552 77.5709 158.375 77.6859C158.198 77.801 157.991 77.8622 157.78 77.8622Z" fill="#263238"/>
<path d="M146.832 97.3843C147.238 97.675 147.669 98.1014 148.21 98.0691C148.76 97.9749 149.285 97.7658 149.749 97.4554C149.759 97.4482 149.77 97.4444 149.782 97.4446C149.794 97.4448 149.805 97.449 149.814 97.4566C149.823 97.4641 149.829 97.4745 149.831 97.486C149.834 97.4975 149.832 97.5095 149.827 97.52C149.659 97.8452 149.406 98.1186 149.095 98.3109C148.784 98.5031 148.427 98.6071 148.062 98.6117C147.748 98.578 147.451 98.4513 147.209 98.2476C146.967 98.044 146.791 97.7727 146.703 97.4683C146.658 97.3908 146.768 97.3391 146.832 97.3843Z" fill="#263238"/>
<path d="M147.721 92.6945C148.185 93.2278 148.754 93.6588 149.392 93.9601C150.031 94.2614 150.725 94.4266 151.43 94.4451C152.046 94.4671 152.662 94.4019 153.259 94.2513C153.373 94.2319 153.486 94.2016 153.594 94.1609C153.703 94.1609 153.8 94.1028 153.916 94.064C153.993 94.036 154.058 93.9836 154.102 93.9148C154.147 93.8459 154.167 93.7645 154.161 93.6829C154.155 93.6318 154.142 93.5818 154.122 93.5343V93.4051C153.98 92.2552 153.607 90.5304 153.607 90.5304C154.058 90.6725 156.325 91.3185 156.183 90.7242C155.153 85.8146 154.006 80.3882 151.939 75.6918C151.929 75.6566 151.905 75.627 151.873 75.6095C151.841 75.5919 151.803 75.5878 151.768 75.5981C151.733 75.6084 151.704 75.6322 151.686 75.6643C151.669 75.6964 151.665 75.7342 151.675 75.7693C152.48 80.5238 154.116 85.1104 155.004 89.8715C154.194 89.6341 153.356 89.5102 152.512 89.5032C152.358 89.5743 153.291 92.8237 153.311 93.3469C153.315 93.3661 153.315 93.3859 153.311 93.4051C151.43 93.9348 149.897 93.573 147.843 92.5588C147.714 92.4748 147.618 92.5911 147.721 92.6945Z" fill="#263238"/>
<path d="M152.499 93.7733C151.992 94.6863 151.261 95.4536 150.374 96.002C149.882 96.2834 149.314 96.4031 148.751 96.3444C147.521 96.2152 147.334 95.1299 147.412 94.1609C147.455 93.6482 147.561 93.1427 147.727 92.6558C149.158 93.5299 150.83 93.9216 152.499 93.7733Z" fill="#263238"/>
<path d="M150.374 96.0021C149.882 96.2834 149.314 96.4031 148.751 96.3444C147.521 96.2152 147.334 95.13 147.412 94.161C148.7 94.1028 150.084 94.7747 150.374 96.0021Z" fill="#FF97B8"/>
<path d="M150.052 66.1115C149.433 67.3623 148.506 68.434 147.359 69.2253C146.211 70.0165 144.882 70.5012 143.496 70.6335C140.746 70.866 137.668 69.6903 136.077 67.3583C136.032 67.2872 135.923 67.3583 135.968 67.4293C137.668 69.9229 140.476 71.6283 143.541 71.3053C145.001 71.1205 146.387 70.555 147.561 69.6652C148.735 68.7754 149.656 67.5924 150.232 66.2342C150.271 66.0792 150.104 65.9952 150.052 66.1115Z" fill="#263238"/>
<path d="M138.235 50.8723C134.725 50.7431 131.466 53.1786 130.14 56.3569C129.385 58.2609 129.128 60.3266 129.392 62.3582C129.392 62.3754 129.399 62.3918 129.411 62.4039C129.423 62.416 129.44 62.4228 129.457 62.4228C129.474 62.4228 129.49 62.416 129.502 62.4039C129.514 62.3918 129.521 62.3754 129.521 62.3582C129.367 59.1282 130.59 55.4848 133.166 53.3917C134.322 52.3812 135.763 51.7573 137.289 51.6068C138.815 51.4563 140.35 51.7866 141.68 52.5519C143.154 53.4119 144.291 54.7524 144.9 56.3504C144.916 56.3822 144.944 56.407 144.977 56.4202C145.01 56.4335 145.047 56.4343 145.08 56.4225C145.114 56.4107 145.142 56.3871 145.16 56.3561C145.178 56.3251 145.184 56.2886 145.177 56.2535C144.714 54.7482 143.798 53.4232 142.555 52.4599C141.313 51.4966 139.804 50.9421 138.235 50.8723Z" fill="#263238"/>
<path d="M164.864 52.7846C163.619 50.8162 161.722 49.352 159.506 48.6502C156.434 47.6683 153.485 48.6502 150.574 49.7161C150.496 49.7161 150.541 49.8647 150.619 49.8389C153.098 48.9539 155.661 48.198 158.302 48.8117C160.474 49.3152 162.406 50.5568 163.769 52.326C165.121 54.1562 165.77 56.4141 165.596 58.6854C165.422 60.9567 164.437 63.0888 162.823 64.6904C161.868 65.5871 160.741 66.2789 159.511 66.7232C158.281 67.1675 156.973 67.3551 155.668 67.2744C155.565 67.2744 155.526 67.423 155.636 67.4295C157.419 67.6072 159.217 67.2838 160.827 66.4953C162.438 65.7067 163.799 64.4842 164.756 62.9645C165.714 61.4447 166.231 59.6877 166.25 57.8899C166.269 56.0921 165.789 54.3245 164.864 52.7846Z" fill="#263238"/>
<path d="M124.852 72.5069C124.852 72.5069 123.745 65.9952 124.955 63.6438C126.166 61.2924 129.727 59.9875 129.727 59.9875C129.727 59.9875 130.623 54.0443 135.71 52.4874C140.276 51.092 144.365 54.4706 144.365 54.4706C144.365 54.4706 149.311 46.5765 157.497 48.5145C165.263 50.3427 166.835 61.2019 160.871 66.1697C156.685 69.6581 149.195 67.0224 149.195 67.0224C148.597 67.2614 143.174 72.662 136.959 68.1529C136.959 68.1529 133.405 72.5715 130.346 70.7369C130.365 70.7627 127.39 73.1336 124.852 72.5069Z" fill="#263238"/>
<path opacity="0.2" d="M128.407 64.8C128.929 68.1399 130.339 77.6684 129.599 80.0004C128.858 82.3325 127.261 88.3468 126.198 88.9928C124.698 81.8868 124.17 74.3996 125.297 70.5495C125.919 68.4351 126.979 66.476 128.407 64.8Z" fill="#263238"/>
<path d="M129.186 88.1789C129.186 88.1789 124.034 81.2408 120.859 83.1078C117.685 84.9747 121.748 95.1557 125.567 96.4412C126.044 96.6411 126.557 96.7418 127.075 96.7372C127.592 96.7326 128.103 96.6229 128.577 96.4145C129.05 96.2062 129.477 95.9036 129.831 95.5252C130.185 95.1467 130.458 94.7001 130.635 94.2125L129.186 88.1789Z" fill="#AD6359"/>
<path d="M122.09 85.9954C122.076 85.9954 122.063 86.0008 122.053 86.0105C122.043 86.0202 122.038 86.0333 122.038 86.047C122.038 86.0607 122.043 86.0739 122.053 86.0836C122.063 86.0933 122.076 86.0987 122.09 86.0987C124.762 87.0871 126.237 89.5031 127.287 92.0225C126.475 91.0665 125.387 90.5626 124.105 91.5445C124.034 91.5962 124.105 91.6995 124.183 91.6802C124.642 91.5176 125.141 91.5018 125.61 91.6348C126.08 91.7678 126.496 92.0431 126.804 92.4231C127.304 93.065 127.736 93.7578 128.092 94.4903C128.22 94.7228 128.645 94.5872 128.549 94.3158C128.548 94.2943 128.548 94.2728 128.549 94.2512C128.491 90.8727 125.722 86.2215 122.09 85.9954Z" fill="#263238"/>
<path d="M183.746 164.22C180.314 164.866 181.228 160.311 178.047 160.014C174.865 159.717 173.912 163.244 171.954 162.74C169.997 162.236 171.401 158.716 167.504 158.683C163.608 158.651 162.72 164.032 160.362 165.272C158.005 166.513 152.937 164.407 152.332 168.716C151.726 173.024 160.427 174.459 166.674 177.475C172.92 180.492 179.676 185.079 185.311 184.756C191.352 184.375 193.979 180.428 198.603 179.801C203.227 179.174 213.853 182.043 218.38 177.979C222.908 173.916 230.217 170.641 230.327 166.235C230.436 161.829 224.666 163.767 222.818 163.554C220.969 163.341 221.143 158.477 217.588 157.798C214.033 157.12 213.158 159.329 210.066 159.549C206.975 159.769 205.649 153.735 201.314 154.82C196.98 155.905 198.094 158.36 196.22 159.433C194.346 160.505 190.701 158.07 188.17 159.187C185.639 160.305 186.805 163.67 183.746 164.22Z" fill="#455A64"/>
<path d="M197.753 167.107C201.334 167.282 199.827 162.902 203.034 162.198C206.241 161.493 207.658 164.879 209.596 164.136C211.535 163.393 209.648 160.079 213.615 159.543C217.582 159.006 219.173 164.245 221.736 165.169C224.299 166.093 229.2 163.36 230.372 167.559C231.544 171.758 222.837 174.291 216.848 178.083C210.858 181.875 204.554 187.288 198.758 187.656C192.55 188.051 189.362 184.465 184.59 184.426C179.818 184.388 169.314 188.6 164.181 185.144C159.049 181.687 151.185 179.381 150.509 175.027C149.833 170.673 155.97 171.849 157.825 171.403C159.68 170.957 158.894 166.151 162.43 165.027C165.965 163.903 167.144 165.977 170.325 165.802C173.506 165.628 174.093 159.484 178.652 159.988C183.212 160.492 182.374 163.089 184.448 163.91C186.522 164.73 189.909 161.855 192.627 162.618C195.345 163.38 194.565 166.952 197.753 167.107Z" fill="#37474F"/>
<path d="M158.482 166.894C155.442 168.948 153.781 173.8 156.228 178.412C158.675 183.025 164.87 182.437 167.82 180.415C170.769 178.393 173.262 173.347 170.744 169.045C168.586 165.311 163.808 163.296 158.482 166.894Z" fill="#6FC886"/>
<path opacity="0.1" d="M158.482 166.894C155.442 168.948 153.781 173.8 156.228 178.412C158.675 183.025 164.87 182.437 167.82 180.415C170.769 178.393 173.262 173.347 170.744 169.045C168.586 165.311 163.808 163.296 158.482 166.894Z" fill="black"/>
<path d="M159.384 168.102C156.904 169.775 155.52 173.742 157.548 177.508C159.577 181.274 164.632 180.796 167.028 179.142C169.424 177.488 171.478 173.373 169.424 169.853C167.646 166.804 163.743 165.163 159.384 168.102Z" fill="#6FC886"/>
<path d="M164.574 170.195C164.793 170.369 165.579 169.71 165.147 169.4C164.716 169.09 164.291 169.975 164.574 170.195Z" fill="white"/>
<path d="M166.41 174.517C166.3 174.769 167.131 175.369 167.324 174.872C167.517 174.375 166.558 174.181 166.41 174.517Z" fill="white"/>
<path d="M168.251 172.837C168.297 173.108 169.32 173.154 169.211 172.63C169.102 172.107 168.194 172.482 168.251 172.837Z" fill="white"/>
<path d="M164.523 168.302C164.793 168.257 164.845 167.236 164.323 167.34C163.801 167.443 164.162 168.36 164.523 168.302Z" fill="white"/>
<path d="M159.622 171.881C159.693 171.616 158.778 171.151 158.662 171.674C158.546 172.198 159.525 172.236 159.622 171.881Z" fill="white"/>
<path d="M161.811 177.592C161.586 177.43 160.833 178.121 161.277 178.412C161.721 178.703 162.108 177.805 161.811 177.592Z" fill="white"/>
<path d="M163.608 177.243C163.338 177.198 162.964 178.154 163.492 178.218C164.02 178.283 163.969 177.301 163.608 177.243Z" fill="white"/>
<path d="M161.721 173.199C161.914 173.005 161.348 172.146 160.994 172.553C160.639 172.96 161.464 173.457 161.721 173.199Z" fill="white"/>
<path d="M156.209 173.91C156.209 173.91 161.2 173.354 161.857 174.368C162.513 175.383 158.965 179.84 158.379 179.446C157.793 179.052 155.668 175.602 156.209 173.91Z" fill="#6FC886"/>
<path opacity="0.1" d="M156.209 173.91C156.209 173.91 161.2 173.354 161.857 174.368C162.513 175.383 158.965 179.84 158.379 179.446C157.793 179.052 155.668 175.602 156.209 173.91Z" fill="black"/>
<path d="M164.742 180.551C164.742 180.551 163.267 175.731 164.143 174.898C165.019 174.065 170.035 176.726 169.765 177.379C169.494 178.031 166.5 180.764 164.742 180.551Z" fill="#6FC886"/>
<path opacity="0.1" d="M164.742 180.551C164.742 180.551 163.267 175.731 164.143 174.898C165.019 174.065 170.035 176.726 169.765 177.379C169.494 178.031 166.5 180.764 164.742 180.551Z" fill="black"/>
<path d="M171.098 171.674C171.098 171.674 166.216 172.863 165.437 171.939C164.658 171.015 167.607 166.125 168.239 166.461C168.87 166.797 171.413 169.898 171.098 171.674Z" fill="#6FC886"/>
<path opacity="0.1" d="M171.098 171.674C171.098 171.674 166.216 172.863 165.437 171.939C164.658 171.015 167.607 166.125 168.239 166.461C168.87 166.797 171.413 169.898 171.098 171.674Z" fill="black"/>
<path d="M162.823 165.815C162.823 165.815 164.014 170.712 163.093 171.494C162.172 172.275 157.297 169.317 157.625 168.683C157.954 168.05 161.084 165.492 162.823 165.815Z" fill="#6FC886"/>
<path opacity="0.1" d="M162.823 165.815C162.823 165.815 164.014 170.712 163.093 171.494C162.172 172.275 157.297 169.317 157.625 168.683C157.954 168.05 161.084 165.492 162.823 165.815Z" fill="black"/>
<path d="M184.686 155.518C181.106 154.73 176.462 156.875 174.827 161.836C173.191 166.797 177.892 170.88 181.402 171.642C184.912 172.404 190.25 170.712 191.622 165.912C192.807 161.758 190.959 156.9 184.686 155.518Z" fill="#6FC886"/>
<path opacity="0.1" d="M184.686 155.518C181.106 154.73 176.462 156.875 174.827 161.836C173.191 166.797 177.892 170.88 181.402 171.642C184.912 172.404 190.25 170.712 191.622 165.912C192.807 161.758 190.959 156.9 184.686 155.518Z" fill="black"/>
<path d="M184.442 156.978C181.524 156.332 177.731 158.089 176.392 162.146C175.052 166.203 178.897 169.543 181.763 170.156C184.628 170.77 188.995 169.4 190.135 165.479C191.081 162.101 189.568 158.134 184.442 156.978Z" fill="#6FC886"/>
<path d="M186.515 162.217C186.515 162.495 187.559 162.611 187.488 162.081C187.417 161.551 186.477 161.855 186.515 162.217Z" fill="white"/>
<path d="M184.673 166.532C184.409 166.629 184.551 167.643 185.041 167.443C185.53 167.243 185.008 166.41 184.673 166.532Z" fill="white"/>
<path d="M187.153 166.707C186.985 166.933 187.655 167.701 187.958 167.262C188.261 166.823 187.365 166.416 187.153 166.707Z" fill="white"/>
<path d="M187.842 160.854C188.061 161.028 188.84 160.356 188.402 160.053C187.964 159.749 187.552 160.647 187.842 160.854Z" fill="white"/>
<path d="M181.879 159.788C182.123 159.652 181.821 158.67 181.37 158.948C180.919 159.226 181.563 159.962 181.879 159.788Z" fill="white"/>
<path d="M179.277 165.324C179.238 165.047 178.214 164.975 178.311 165.499C178.407 166.022 179.322 165.68 179.277 165.324Z" fill="white"/>
<path d="M180.764 166.384C180.61 166.151 179.663 166.545 179.979 166.971C180.294 167.398 180.964 166.668 180.764 166.384Z" fill="white"/>
<path d="M182.374 162.223C182.651 162.223 182.877 161.222 182.374 161.235C181.872 161.248 182.014 162.217 182.374 162.223Z" fill="white"/>
<path d="M178.06 158.709C178.06 158.709 181.924 161.939 181.634 163.128C181.344 164.317 175.69 164.807 175.567 164.11C175.445 163.412 176.456 159.491 178.06 158.709Z" fill="#6FC886"/>
<path opacity="0.1" d="M178.06 158.709C178.06 158.709 181.924 161.939 181.634 163.128C181.344 164.317 175.69 164.807 175.567 164.11C175.445 163.412 176.456 159.491 178.06 158.709Z" fill="black"/>
<path d="M179.167 169.491C179.167 169.491 181.621 165.092 182.825 165.15C184.029 165.208 185.575 170.692 184.918 170.964C184.261 171.235 180.223 170.919 179.167 169.491Z" fill="#6FC886"/>
<path opacity="0.1" d="M179.167 169.491C179.167 169.491 181.621 165.092 182.825 165.15C184.029 165.208 185.575 170.692 184.918 170.964C184.261 171.235 180.223 170.919 179.167 169.491Z" fill="black"/>
<path d="M189.98 167.96C189.98 167.96 185.749 165.234 185.878 164.032C186.007 162.831 191.558 161.61 191.764 162.282C191.97 162.953 191.435 166.997 189.98 167.96Z" fill="#6FC886"/>
<path opacity="0.1" d="M189.98 167.96C189.98 167.96 185.749 165.234 185.878 164.032C186.007 162.831 191.558 161.61 191.764 162.282C191.97 162.953 191.435 166.997 189.98 167.96Z" fill="black"/>
<path d="M188.467 157.921C188.467 157.921 185.755 162.165 184.558 162.036C183.36 161.907 182.143 156.345 182.812 156.132C183.482 155.918 187.494 156.435 188.467 157.921Z" fill="#6FC886"/>
<path opacity="0.1" d="M188.467 157.921C188.467 157.921 185.755 162.165 184.558 162.036C183.36 161.907 182.143 156.345 182.812 156.132C183.482 155.918 187.494 156.435 188.467 157.921Z" fill="black"/>
<path d="M194.784 179.174C197.483 181.661 202.57 182.146 206.473 178.683C210.375 175.221 208.353 169.31 205.7 166.894C203.047 164.478 197.579 163.238 193.992 166.694C190.888 169.691 190.051 174.82 194.784 179.174Z" fill="#6FC886"/>
<path opacity="0.1" d="M194.784 179.174C197.483 181.661 202.57 182.146 206.473 178.683C210.375 175.221 208.353 169.31 205.7 166.894C203.047 164.478 197.579 163.238 193.992 166.694C190.888 169.691 190.051 174.82 194.784 179.174Z" fill="black"/>
<path d="M195.737 178.012C197.94 180.04 202.1 180.434 205.288 177.611C208.476 174.788 206.827 169.956 204.644 167.973C202.461 165.99 198.011 164.988 195.081 167.811C192.556 170.26 191.873 174.452 195.737 178.012Z" fill="#6FC886"/>
<path d="M196.562 172.482C196.678 172.23 195.853 171.616 195.654 172.107C195.454 172.598 196.42 172.792 196.562 172.482Z" fill="white"/>
<path d="M200.316 169.659C200.587 169.711 200.96 168.761 200.445 168.684C199.93 168.606 199.956 169.594 200.316 169.659Z" fill="white"/>
<path d="M198.255 168.257C198.513 168.154 198.32 167.146 197.837 167.372C197.354 167.598 197.927 168.399 198.255 168.257Z" fill="white"/>
<path d="M194.733 172.96C194.63 172.702 193.625 172.889 193.844 173.373C194.063 173.858 194.874 173.289 194.733 172.96Z" fill="white"/>
<path d="M199.35 176.901C199.073 176.901 198.841 177.889 199.35 177.883C199.859 177.876 199.711 176.907 199.35 176.901Z" fill="white"/>
<path d="M204.373 173.425C204.27 173.684 205.114 174.258 205.294 173.761C205.475 173.264 204.509 173.089 204.373 173.425Z" fill="white"/>
<path d="M203.613 171.758C203.613 172.036 204.65 172.172 204.586 171.642C204.522 171.113 203.588 171.397 203.613 171.758Z" fill="white"/>
<path d="M200.136 174.543C199.898 174.4 199.202 175.156 199.672 175.408C200.142 175.66 200.451 174.73 200.136 174.543Z" fill="white"/>
<path d="M202.113 179.756C202.113 179.756 200.406 175.014 201.237 174.136C202.068 173.257 207.213 175.68 206.975 176.339C206.737 176.997 203.884 179.885 202.113 179.756Z" fill="#6FC886"/>
<path opacity="0.1" d="M202.113 179.756C202.113 179.756 200.406 175.014 201.237 174.136C202.068 173.257 207.213 175.68 206.975 176.339C206.737 176.997 203.884 179.885 202.113 179.756Z" fill="black"/>
<path d="M206.557 169.898C206.557 169.898 202.229 172.482 201.218 171.803C200.207 171.125 201.611 165.628 202.306 165.744C203.002 165.86 206.35 168.108 206.557 169.898Z" fill="#6FC886"/>
<path opacity="0.1" d="M206.557 169.898C206.557 169.898 202.229 172.482 201.218 171.803C200.207 171.125 201.611 165.628 202.306 165.744C203.002 165.86 206.35 168.108 206.557 169.898Z" fill="black"/>
<path d="M196.465 165.757C196.465 165.757 198.758 170.24 198.049 171.216C197.341 172.191 191.925 170.447 192.079 169.762C192.234 169.078 194.701 165.854 196.465 165.757Z" fill="#6FC886"/>
<path opacity="0.1" d="M196.465 165.757C196.465 165.757 198.758 170.24 198.049 171.216C197.341 172.191 191.925 170.447 192.079 169.762C192.234 169.078 194.701 165.854 196.465 165.757Z" fill="black"/>
<path d="M192.717 175.189C192.717 175.189 197.193 172.889 198.165 173.606C199.138 174.323 197.399 179.749 196.71 179.594C196.021 179.439 192.814 176.965 192.717 175.189Z" fill="#6FC886"/>
<path opacity="0.1" d="M192.717 175.189C192.717 175.189 197.193 172.889 198.165 173.606C199.138 174.323 197.399 179.749 196.71 179.594C196.021 179.439 192.814 176.965 192.717 175.189Z" fill="black"/>
<path d="M214.452 171.054C217.15 173.541 222.238 174.019 226.141 170.557C230.043 167.094 228.021 161.19 225.368 158.767C222.715 156.345 217.247 155.111 213.66 158.567C210.588 161.564 209.719 166.668 214.452 171.054Z" fill="#6FC886"/>
<path opacity="0.1" d="M214.452 171.054C217.15 173.541 222.238 174.019 226.141 170.557C230.043 167.094 228.021 161.19 225.368 158.767C222.715 156.345 217.247 155.111 213.66 158.567C210.588 161.564 209.719 166.668 214.452 171.054Z" fill="black"/>
<path d="M215.405 169.898C217.608 171.926 221.768 172.32 224.956 169.491C228.143 166.662 226.495 161.836 224.312 159.859C222.128 157.882 217.678 156.868 214.748 159.698C212.224 162.146 211.541 166.326 215.405 169.898Z" fill="#6FC886"/>
<path d="M216.229 164.336C216.345 164.084 215.521 163.477 215.321 163.968C215.122 164.459 216.075 164.665 216.229 164.336Z" fill="white"/>
<path d="M219.984 161.539C220.254 161.584 220.628 160.634 220.113 160.563C219.598 160.492 219.604 161.5 219.984 161.539Z" fill="white"/>
<path d="M217.923 160.137C218.181 160.027 217.988 159.019 217.505 159.245C217.022 159.471 217.595 160.279 217.923 160.137Z" fill="white"/>
<path d="M214.4 164.833C214.297 164.575 213.293 164.769 213.512 165.247C213.731 165.725 214.542 165.169 214.4 164.833Z" fill="white"/>
<path d="M219.018 168.774C218.741 168.774 218.509 169.769 219.018 169.756C219.527 169.743 219.379 168.787 219.018 168.774Z" fill="white"/>
<path d="M224.041 165.305C223.938 165.563 224.782 166.138 224.962 165.634C225.142 165.13 224.176 164.969 224.041 165.305Z" fill="white"/>
<path d="M223.281 163.632C223.281 163.909 224.318 164.045 224.254 163.522C224.189 162.999 223.255 163.27 223.281 163.632Z" fill="white"/>
<path d="M219.804 166.422C219.565 166.28 218.87 167.03 219.34 167.288C219.81 167.546 220.119 166.61 219.804 166.422Z" fill="white"/>
<path d="M221.781 171.629C221.781 171.629 220.074 166.888 220.905 166.016C221.736 165.143 226.881 167.553 226.643 168.218C226.405 168.884 223.552 171.758 221.781 171.629Z" fill="#6FC886"/>
<path opacity="0.1" d="M221.781 171.629C221.781 171.629 220.074 166.888 220.905 166.016C221.736 165.143 226.881 167.553 226.643 168.218C226.405 168.884 223.552 171.758 221.781 171.629Z" fill="black"/>
<path d="M226.224 161.752C226.224 161.752 221.897 164.336 220.886 163.69C219.874 163.044 221.278 157.514 221.974 157.624C222.669 157.734 226.044 159.988 226.224 161.752Z" fill="#6FC886"/>
<path opacity="0.1" d="M226.224 161.752C226.224 161.752 221.897 164.336 220.886 163.69C219.874 163.044 221.278 157.514 221.974 157.624C222.669 157.734 226.044 159.988 226.224 161.752Z" fill="black"/>
<path d="M216.133 157.624C216.133 157.624 218.426 162.107 217.717 163.082C217.009 164.058 211.593 162.32 211.747 161.629C211.902 160.938 214.368 157.727 216.133 157.624Z" fill="#6FC886"/>
<path opacity="0.1" d="M216.133 157.624C216.133 157.624 218.426 162.107 217.717 163.082C217.009 164.058 211.593 162.32 211.747 161.629C211.902 160.938 214.368 157.727 216.133 157.624Z" fill="black"/>
<path d="M212.385 167.068C212.385 167.068 216.861 164.769 217.833 165.479C218.805 166.19 217.067 171.623 216.378 171.468C215.688 171.313 212.481 168.845 212.385 167.068Z" fill="#6FC886"/>
<path opacity="0.1" d="M212.385 167.068C212.385 167.068 216.861 164.769 217.833 165.479C218.805 166.19 217.067 171.623 216.378 171.468C215.688 171.313 212.481 168.845 212.385 167.068Z" fill="black"/>
<path d="M148.77 175.344L167.627 201.113L216.867 197.999L232.349 170.059L148.77 175.344Z" fill="#EBEBEB"/>
<path d="M109.435 132.313C97.6562 163.754 88.0219 198.005 95.312 204.84C101.198 210.35 150.084 218.406 160.781 217.676C165.328 217.379 169.945 182.146 162.069 180.912C159.828 180.563 124.717 179.756 124.369 178.974C123.217 176.558 124.137 159.478 124.569 139.122C125.11 112.959 114.419 119.006 109.435 132.313Z" fill="#AD6359"/>
<path d="M158.36 217.379C171.091 218.89 186.85 221.552 200.097 215.719C201.584 215.105 202.822 214.008 203.613 212.605C209.596 210.098 210.214 206.507 210.214 206.507C215.07 202.456 215.199 198.703 215.199 198.703C215.199 198.703 222.186 195.68 221.066 191.138C219.823 186.035 210.247 191.28 203.227 190.938C187.127 190.143 162.101 184.368 157.503 183.677L158.36 217.379Z" fill="#AD6359"/>
<path d="M185.8 201.972C190.54 202.108 195.196 202.372 199.93 201.862C205.127 201.306 210.034 199.924 215.064 198.593C215.079 198.588 215.096 198.586 215.112 198.588C215.129 198.589 215.145 198.593 215.159 198.601C215.174 198.608 215.187 198.619 215.198 198.631C215.208 198.644 215.217 198.658 215.222 198.674C215.227 198.69 215.229 198.706 215.227 198.723C215.226 198.739 215.221 198.755 215.214 198.77C215.207 198.785 215.196 198.798 215.184 198.808C215.171 198.819 215.157 198.827 215.141 198.832C206.408 202.644 195.177 203.761 185.788 202.185C185.562 202.153 185.562 201.965 185.8 201.972Z" fill="#263238"/>
<path d="M183.914 211.649C188.531 211.526 196.652 211.261 210.182 206.339C210.227 206.339 210.266 206.391 210.221 206.416C201.849 210.783 193.252 212.405 183.92 211.869C183.63 211.849 183.604 211.655 183.914 211.649Z" fill="#263238"/>
<path d="M182.993 216.862C190.843 216.358 195.725 215.04 203.601 212.56C203.639 212.56 203.678 212.618 203.633 212.637C194.984 216.404 191.397 216.785 182.973 217.159C182.684 217.146 182.684 216.882 182.993 216.862Z" fill="#263238"/>
<path d="M183.894 188.748C181.84 187.811 182.31 186.726 186.213 185.77C190.115 184.814 206.344 184.342 205.7 178.664C205.056 172.986 182.413 175.059 175.793 176.08C168.846 177.262 162.265 180.036 156.563 184.187C161.058 184.898 175.091 187.262 183.894 188.748Z" fill="#AD6359"/>
<path d="M125.355 171.448L91.1003 179.097C91.1003 179.097 102.815 142.889 110.42 128.767C118.406 114.051 125.735 113.528 126.224 135.66C126.655 157.52 125.355 171.448 125.355 171.448Z" fill="#6FC886"/>
<path d="M95.5116 172.32C96.3488 172.036 97.2376 171.868 98.0876 171.674L100.741 171.028C102.538 170.596 104.341 170.195 106.144 169.801C109.744 169.019 113.35 168.218 116.963 167.495C117.961 167.301 118.953 167.101 119.951 166.933C120.95 166.765 122.07 166.642 123.12 166.461C123.184 166.461 123.191 166.545 123.12 166.558C122.231 166.778 121.362 167.075 120.473 167.301C119.584 167.527 118.657 167.753 117.743 167.947C115.939 168.352 114.136 168.746 112.333 169.129C108.778 169.872 105.249 170.634 101.655 171.3L98.6608 171.855C97.624 172.049 96.5678 172.308 95.5116 172.404C95.4794 172.417 95.4537 172.34 95.5116 172.32Z" fill="#263238"/>
<path d="M98.9055 158.315C99.7299 155.983 100.483 153.638 101.275 151.3C102.171 148.644 102.982 145.964 103.851 143.296C103.851 143.231 103.755 143.192 103.729 143.257C102.654 146.099 98.9892 155.57 98.4096 157.178C96.7159 161.862 95.0222 166.545 93.3671 171.242C92.4398 173.877 91.4351 176.92 90.5207 179.556C90.4563 179.749 93.2061 179 94.6487 178.567C94.726 178.567 94.7775 178.277 94.6809 178.302C93.3156 178.612 91.4609 178.813 91.2548 178.864C93.0129 174.407 94.7002 169.917 96.3553 165.415C97.2182 163.055 98.0683 160.688 98.9055 158.315Z" fill="#263238"/>
<path d="M120.428 170.822C120.194 171.421 120.011 172.039 119.881 172.669L120.441 172.546C120.693 172.075 120.919 171.59 121.117 171.093C121.458 170.201 121.675 169.266 121.761 168.315C121.198 169.081 120.749 169.926 120.428 170.822ZM104.328 156.855C103.979 157.744 103.762 158.68 103.684 159.633C104.799 158.07 105.498 156.246 105.713 154.336C105.129 155.102 104.663 155.951 104.328 156.855ZM121.072 151.952C120.695 151.069 120.194 150.245 119.584 149.504C119.718 150.454 119.992 151.379 120.396 152.249C120.772 153.133 121.273 153.957 121.883 154.698C121.759 153.75 121.499 152.825 121.111 151.952H121.072ZM120.905 124.219C120.529 123.338 120.027 122.515 119.417 121.777C119.558 122.724 119.831 123.646 120.228 124.516C120.604 125.4 121.105 126.225 121.716 126.965C121.591 126.017 121.331 125.092 120.943 124.219H120.905ZM102.963 172.618C102.087 172.998 101.268 173.498 100.528 174.103C101.475 173.967 102.397 173.693 103.265 173.289C104.143 172.911 104.962 172.411 105.7 171.804C104.767 171.946 103.858 172.22 103.001 172.618H102.963ZM112.855 138.244C111.975 138.621 111.153 139.121 110.414 139.73C111.363 139.587 112.285 139.304 113.151 138.89C114.032 138.516 114.854 138.016 115.592 137.404C114.644 137.553 113.723 137.835 112.855 138.244Z" fill="white"/>
<path opacity="0.8" d="M168.728 286.036C168.728 288.743 145.325 288.71 145.331 285.997L145.447 258.594C145.952 258.555 146.446 258.431 146.909 258.226C146.982 258.193 147.044 258.14 147.088 258.073C147.131 258.006 147.154 257.928 147.154 257.848C147.154 257.768 147.131 257.689 147.088 257.622C147.044 257.555 146.982 257.502 146.909 257.47C146.443 257.251 145.949 257.096 145.441 257.011V255.538C145.947 255.502 146.444 255.379 146.909 255.177C146.981 255.14 147.041 255.084 147.083 255.015C147.125 254.946 147.147 254.867 147.147 254.786C147.147 254.705 147.125 254.626 147.083 254.557C147.041 254.488 146.981 254.432 146.909 254.395C146.437 254.198 145.944 254.053 145.441 253.962V252.489C145.947 252.447 146.443 252.323 146.909 252.121C146.981 252.085 147.042 252.03 147.084 251.961C147.126 251.893 147.149 251.814 147.149 251.733C147.149 251.653 147.126 251.574 147.084 251.505C147.042 251.437 146.981 251.382 146.909 251.346C146.439 251.142 145.946 250.995 145.441 250.906V249.414C145.944 249.367 146.439 249.25 146.909 249.065C146.981 249.03 147.042 248.974 147.084 248.906C147.126 248.837 147.149 248.758 147.149 248.678C147.149 248.597 147.126 248.518 147.084 248.45C147.042 248.381 146.981 248.326 146.909 248.29C146.435 248.093 145.943 247.942 145.441 247.838V241.643C145.441 239.466 152.654 232.547 153.768 231.488L153.916 231.352V229.666H160.427V231.352C160.427 231.352 168.876 239.311 168.876 241.688V247.877C168.374 247.985 167.882 248.138 167.408 248.335C167.338 248.363 167.279 248.413 167.24 248.478C167.186 248.559 167.162 248.656 167.17 248.754C167.178 248.851 167.219 248.943 167.285 249.014C167.316 249.058 167.358 249.091 167.408 249.111C167.876 249.295 168.368 249.413 168.87 249.459V250.952C168.384 251.037 167.909 251.176 167.453 251.365H167.401C167.329 251.401 167.269 251.456 167.227 251.525C167.184 251.593 167.162 251.672 167.162 251.753C167.162 251.833 167.184 251.912 167.227 251.981C167.269 252.049 167.329 252.105 167.401 252.14L167.517 252.186C167.95 252.366 168.409 252.477 168.876 252.515V253.988C168.47 254.06 168.071 254.17 167.685 254.317L167.408 254.421C167.336 254.457 167.275 254.512 167.233 254.58C167.191 254.649 167.168 254.728 167.168 254.808C167.168 254.889 167.191 254.968 167.233 255.036C167.275 255.105 167.336 255.16 167.408 255.196C167.516 255.252 167.631 255.295 167.749 255.325C168.112 255.456 168.491 255.537 168.876 255.564V257.037C168.539 257.096 168.207 257.182 167.884 257.295C167.71 257.36 167.549 257.431 167.414 257.496C167.341 257.528 167.279 257.581 167.236 257.648C167.192 257.715 167.169 257.794 167.169 257.874C167.169 257.954 167.192 258.032 167.236 258.099C167.279 258.166 167.341 258.219 167.414 258.252C167.593 258.331 167.779 258.396 167.968 258.445C168.266 258.536 168.572 258.594 168.883 258.62V272.832L168.728 286.036Z" fill="white"/>
<path opacity="0.8" d="M166.828 244.705L166.796 270.364L166.719 283.93C166.719 286.152 147.45 286.133 147.457 283.891L147.573 244.937C149.202 245.519 153.002 246.701 156.292 246.352C159.583 246.003 163.782 244.834 166.796 244.582C166.814 244.621 166.825 244.662 166.828 244.705Z" fill="#EBEBEB"/>
<path d="M161.794 225.532L152.584 225.519C152.403 225.519 152.256 225.666 152.256 225.848L152.251 229.336C152.25 229.518 152.397 229.666 152.579 229.666L161.788 229.679C161.969 229.679 162.117 229.532 162.117 229.35L162.122 225.862C162.122 225.68 161.975 225.532 161.794 225.532Z" fill="#6FC886"/>
<path d="M32.625 263.898C33.4262 263.892 34.2094 263.659 34.8833 263.224C35.5572 262.79 36.094 262.172 36.4311 261.443C36.4311 261.443 38.1441 263.116 40.9391 261.96C43.734 260.803 46.6578 253.762 44.5841 247.903C42.5104 242.043 37.0622 240.661 32.6766 245.241C26.7453 243.064 22.437 246.714 23.1711 252.89C23.9053 259.065 29.624 264.104 32.625 263.898Z" fill="#6FC886"/>
<path d="M27.6469 238.561C29.1814 239.015 30.5628 239.882 31.6412 241.068C32.7197 242.253 33.4541 243.712 33.7649 245.286C34.0483 246.733 31.8329 247.263 31.5238 245.803C31.0408 243.361 28.9478 242.276 26.5779 241.565C25.1611 241.139 26.2237 238.135 27.6469 238.561Z" fill="#37474F"/>
<path d="M32.2644 246.772C32.2644 246.772 32.6959 240.034 39.1616 239.156C38.8832 240.964 38.081 242.65 36.8546 244.004C35.6282 245.358 34.032 246.321 32.2644 246.772Z" fill="#37474F"/>
<path d="M54.3085 262.754C54.8115 263.382 55.483 263.854 56.244 264.112C57.005 264.371 57.8237 264.406 58.604 264.214C58.604 264.214 58.3528 266.604 60.9868 268.09C63.6207 269.576 70.9495 267.528 74.2596 262.276C77.5698 257.024 75.2836 251.869 68.9853 251.236C67.0533 245.215 61.502 244.072 57.1164 248.464C52.7307 252.857 52.2799 260.493 54.3085 262.754Z" fill="#6FC886"/>
<path d="M71.0912 243.167C71.6836 244.658 71.8582 246.282 71.596 247.865C71.3337 249.448 70.6447 250.929 69.6035 252.147C68.644 253.271 66.8472 251.83 67.8132 250.706C69.4297 248.813 68.9917 246.501 68.0773 244.181C67.5298 242.806 70.5438 241.785 71.0912 243.167Z" fill="#37474F"/>
<path d="M67.5299 251.862C67.5299 251.862 73.0811 248.038 77.763 252.599C76.1731 253.496 74.3555 253.904 72.5361 253.773C70.7168 253.642 68.9759 252.978 67.5299 251.862Z" fill="#37474F"/>
<path d="M50.0581 266.914C49.2681 266.782 48.532 266.426 47.9357 265.89C47.3393 265.353 46.9073 264.658 46.69 263.885C46.69 263.885 44.758 265.267 42.1434 263.684C39.5287 262.102 37.7964 254.679 40.7652 249.22C43.734 243.762 49.3304 243.264 52.9432 248.478C59.145 247.276 62.8222 251.565 61.122 257.522C59.4219 263.478 53.0141 267.593 50.0581 266.914Z" fill="#6FC886"/>
<path opacity="0.1" d="M50.0581 266.914C49.2681 266.782 48.532 266.426 47.9357 265.89C47.3393 265.353 46.9073 264.658 46.69 263.885C46.69 263.885 44.758 265.267 42.1434 263.684C39.5287 262.102 37.7964 254.679 40.7652 249.22C43.734 243.762 49.3304 243.264 52.9432 248.478C59.145 247.276 62.8222 251.565 61.122 257.522C59.4219 263.478 53.0141 267.593 50.0581 266.914Z" fill="black"/>
<path d="M58.9711 242.683C57.3874 242.892 55.8905 243.53 54.6421 244.53C53.3937 245.529 52.4411 246.852 51.8871 248.355C51.3783 249.737 53.5035 250.616 54.0187 249.22C54.8752 246.888 57.1099 246.145 59.57 245.822C61.019 245.629 60.4394 242.489 58.9711 242.683Z" fill="#37474F"/>
<path d="M53.1236 250.002C53.1236 250.002 53.7676 243.284 47.5143 241.391C47.5031 243.22 48.0291 245.012 49.0266 246.544C50.0241 248.075 51.449 249.278 53.1236 250.002Z" fill="#37474F"/>
<path d="M84.1193 265.758C83.3506 265.987 82.5329 265.993 81.7612 265.774C80.9894 265.556 80.2953 265.122 79.7594 264.524C79.7594 264.524 78.6131 266.63 75.5927 266.346C72.5724 266.061 67.7359 260.183 68.0128 253.968C68.2898 247.754 73.094 244.84 78.626 247.928C83.662 244.11 88.8462 246.339 89.941 252.45C91.0358 258.561 87.0688 265.067 84.1193 265.758Z" fill="#6FC886"/>
<path opacity="0.1" d="M84.1193 265.758C83.3506 265.987 82.5329 265.993 81.7612 265.774C80.9894 265.556 80.2953 265.122 79.7594 264.524C79.7594 264.524 78.6131 266.63 75.5927 266.346C72.5724 266.061 67.7359 260.183 68.0128 253.968C68.2898 247.754 73.094 244.84 78.626 247.928C83.662 244.11 88.8462 246.339 89.941 252.45C91.0358 258.561 87.0688 265.067 84.1193 265.758Z" fill="black"/>
<path d="M81.4917 240.067C80.1623 240.955 79.0998 242.19 78.4189 243.639C77.7379 245.088 77.4644 246.696 77.6277 248.29C77.7759 249.763 80.0685 249.582 79.9204 248.129C79.6692 245.655 81.3501 244.007 83.4173 242.625C84.628 241.804 82.7282 239.246 81.4917 240.067Z" fill="#37474F"/>
<path d="M79.4632 249.24C79.4632 249.24 77.0868 242.922 70.6468 243.981C71.4404 245.628 72.6993 247.005 74.2669 247.94C75.8344 248.875 77.6415 249.327 79.4632 249.24Z" fill="#37474F"/>
<path d="M89.8251 256.934C89.8251 256.934 83.9325 279.072 76.2238 279.072H35.42C27.692 279.072 21.8252 256.934 21.8252 256.934H89.8251Z" fill="#EBEBEB"/>
<path d="M260.62 258.497C266.745 250.745 266.545 249.175 266.461 248.49C266.461 248.31 263.274 230.254 257.561 230.254H246.324C246.362 228.083 246.427 226.417 246.478 226.042C246.704 224.388 247.496 222.812 248.758 222.812C250.02 222.812 250.046 221.255 248.758 221.255H225.297C224.041 221.255 224.041 222.812 225.297 222.812C226.553 222.812 231.241 224.627 231.943 225.545C232.645 226.462 232.845 240.073 232.671 243.161C232.497 246.249 218.316 254.195 216.294 263.504C214.272 272.812 219.205 286.075 239.549 286.075C259.893 286.075 264.819 272.812 262.81 263.504C262.382 261.718 261.64 260.023 260.62 258.497ZM246.452 243.18C246.285 241.94 246.253 238.064 246.285 234.304H257.355C259.152 235.706 261.979 245.706 262.449 248.742C262.069 249.737 260.137 252.528 258.122 255.157C253.298 249.621 246.704 245.235 246.427 243.18H246.452Z" fill="white"/>
<path d="M260.62 258.497C261.754 257.043 262.868 255.571 263.905 254.046C264.42 253.284 264.922 252.509 265.367 251.707C265.846 250.924 266.199 250.07 266.41 249.175C266.45 248.719 266.407 248.259 266.281 247.819L265.998 246.468C265.805 245.564 265.59 244.666 265.354 243.775C264.897 241.992 264.368 240.222 263.757 238.484C263.158 236.745 262.388 235.069 261.458 233.484C260.998 232.697 260.427 231.982 259.764 231.358C259.446 231.045 259.07 230.797 258.657 230.629C258.243 230.462 257.801 230.378 257.355 230.383H246.317H246.169V230.234L246.266 227.56L246.311 226.229C246.34 225.777 246.424 225.33 246.562 224.898C246.69 224.457 246.883 224.036 247.135 223.652C247.388 223.243 247.765 222.926 248.21 222.747C248.324 222.705 248.444 222.679 248.565 222.67H248.893C249.078 222.654 249.251 222.574 249.383 222.444C249.438 222.38 249.479 222.305 249.501 222.224C249.524 222.142 249.528 222.057 249.513 221.973C249.498 221.89 249.465 221.812 249.416 221.743C249.366 221.675 249.302 221.618 249.228 221.578C248.832 221.456 248.416 221.416 248.004 221.462H244.031H238.724H228.111H225.464C225.039 221.462 224.679 221.565 224.582 221.895C224.562 221.975 224.56 222.059 224.576 222.14C224.591 222.221 224.625 222.298 224.673 222.365C224.722 222.432 224.784 222.488 224.856 222.528C224.928 222.569 225.008 222.593 225.091 222.599C225.252 222.599 225.529 222.599 225.735 222.663C225.941 222.728 226.179 222.754 226.379 222.805C226.817 222.922 227.242 223.051 227.667 223.199C228.511 223.488 229.338 223.823 230.146 224.201C230.555 224.394 230.953 224.61 231.338 224.847C231.539 224.97 231.73 225.108 231.911 225.26C232.016 225.352 232.101 225.464 232.162 225.59C232.211 225.704 232.248 225.823 232.271 225.945C232.437 226.829 232.547 227.722 232.6 228.619C232.729 230.396 232.793 232.166 232.845 233.942C232.896 235.719 232.928 237.495 232.935 239.272C232.935 240.157 232.935 241.048 232.935 241.94C232.935 242.386 232.935 242.812 232.883 243.29C232.783 243.769 232.561 244.214 232.239 244.582C231.078 245.943 229.805 247.203 228.433 248.348C227.107 249.524 225.78 250.693 224.498 251.908C221.955 254.343 219.488 256.934 217.814 260.028C216.963 261.561 216.422 263.247 216.223 264.989C215.988 266.731 216.008 268.498 216.281 270.235L216.371 270.881C216.416 271.094 216.474 271.307 216.526 271.527L216.841 272.819L217.305 274.053L217.537 274.666L217.833 275.254L218.438 276.423C218.67 276.792 218.934 277.147 219.179 277.509C219.675 278.232 220.233 278.911 220.847 279.537C221.145 279.857 221.465 280.155 221.806 280.429L222.805 281.281C223.545 281.753 224.254 282.276 225.014 282.709C225.773 283.142 226.572 283.523 227.39 283.84C228.208 284.156 229.039 284.486 229.882 284.705C233.29 285.612 236.81 286.021 240.334 285.92L242.975 285.816C243.851 285.732 244.726 285.597 245.596 285.487C246.465 285.367 247.325 285.192 248.172 284.964C248.597 284.86 249.035 284.776 249.46 284.647L250.703 284.208C254.053 283.089 257.038 281.08 259.339 278.394C259.622 278.058 259.848 277.677 260.105 277.321C260.375 276.972 260.614 276.6 260.82 276.21L261.464 275.041C261.66 274.646 261.83 274.238 261.973 273.82C262.614 272.166 262.997 270.423 263.106 268.652C263.224 266.884 263.098 265.108 262.733 263.374C262.313 261.639 261.598 259.989 260.62 258.497ZM260.62 258.497C261.612 259.972 262.346 261.606 262.791 263.329C263.173 265.067 263.316 266.849 263.216 268.626C263.117 270.406 262.746 272.16 262.114 273.827C261.978 274.25 261.81 274.662 261.612 275.06L260.968 276.249C260.762 276.642 260.525 277.018 260.26 277.373C260.002 277.735 259.777 278.122 259.487 278.465C257.194 281.217 254.188 283.281 250.799 284.427L249.544 284.873C249.118 285.002 248.681 285.086 248.256 285.196C247.408 285.425 246.548 285.604 245.68 285.732C244.797 285.842 243.921 285.984 243.039 286.068L240.379 286.184C236.824 286.295 233.272 285.892 229.831 284.989C228.981 284.737 228.15 284.408 227.306 284.117C226.463 283.827 225.696 283.355 224.891 282.974C224.086 282.593 223.391 282.011 222.637 281.533L221.62 280.661C221.269 280.385 220.939 280.083 220.634 279.757C220.008 279.116 219.435 278.425 218.921 277.69C218.67 277.321 218.406 276.96 218.168 276.585L217.524 275.39L217.215 274.796L216.976 274.15L216.506 272.896L216.171 271.604C216.12 271.385 216.056 271.171 216.01 270.958L215.92 270.312C215.634 268.541 215.608 266.736 215.843 264.957C216.047 263.164 216.598 261.428 217.466 259.847C218.322 258.277 219.348 256.806 220.525 255.461C221.682 254.103 222.912 252.809 224.209 251.585C225.497 250.357 226.823 249.182 228.143 247.999C229.487 246.872 230.734 245.633 231.872 244.298C232.131 243.989 232.314 243.624 232.407 243.232C232.445 242.825 232.445 242.36 232.458 241.94C232.458 241.055 232.458 240.17 232.458 239.285C232.458 237.515 232.458 235.738 232.387 233.968C232.317 232.198 232.278 230.428 232.156 228.665C232.107 227.798 232.006 226.935 231.853 226.081C231.853 225.971 231.795 225.88 231.769 225.796C231.728 225.726 231.676 225.662 231.615 225.609C231.456 225.475 231.288 225.352 231.112 225.241C230.74 225.017 230.355 224.814 229.959 224.634C229.166 224.259 228.353 223.927 227.525 223.639C226.709 223.321 225.853 223.121 224.981 223.044C224.846 223.025 224.717 222.979 224.599 222.91C224.482 222.84 224.38 222.747 224.299 222.637C224.213 222.524 224.156 222.391 224.131 222.251C224.107 222.11 224.116 221.966 224.157 221.83C224.199 221.697 224.27 221.575 224.363 221.471C224.456 221.367 224.57 221.285 224.698 221.229C224.929 221.137 225.178 221.097 225.426 221.113H228.079H238.692H243.999H248.635C248.885 221.099 249.135 221.152 249.357 221.268C249.477 221.333 249.582 221.425 249.661 221.537C249.74 221.649 249.793 221.778 249.814 221.914C249.835 222.048 249.826 222.186 249.785 222.316C249.745 222.446 249.676 222.565 249.582 222.663C249.401 222.851 249.159 222.967 248.9 222.993C248.682 222.99 248.464 223.02 248.256 223.083C247.872 223.234 247.549 223.506 247.335 223.858C247.1 224.217 246.92 224.609 246.8 225.021C246.579 225.864 246.479 226.734 246.504 227.605L246.407 230.247L246.259 230.099H257.297C258.26 230.093 259.186 230.469 259.873 231.145C260.554 231.787 261.138 232.524 261.606 233.335C262.531 234.94 263.293 236.635 263.879 238.393C264.484 240.144 264.993 241.921 265.437 243.716C265.656 244.608 265.863 245.512 266.081 246.417L266.352 247.773C266.476 248.225 266.513 248.696 266.461 249.162C266.247 250.066 265.886 250.928 265.392 251.714C264.935 252.521 264.426 253.29 263.905 254.046C262.887 255.59 261.767 257.05 260.62 258.497Z" fill="#263238"/>
<path d="M246.427 243.18C246.336 242.444 246.317 241.707 246.285 240.964L246.233 238.742V234.304V234.259H246.278L257.349 234.123H257.42L257.458 234.162L257.825 234.53C257.928 234.666 258.019 234.808 258.115 234.944C258.297 235.217 258.465 235.499 258.617 235.79C258.914 236.371 259.171 236.966 259.422 237.56C259.905 238.762 260.331 239.983 260.71 241.21C261.09 242.437 261.477 243.671 261.799 244.918C262.121 246.165 262.443 247.424 262.636 248.71V248.768V248.82C262.36 249.421 262.034 249.997 261.664 250.545C261.309 251.087 260.936 251.617 260.556 252.147C259.8 253.193 259.023 254.227 258.225 255.247L258.115 255.383L257.999 255.254C256.16 253.144 254.192 251.151 252.107 249.285C251.07 248.342 250.02 247.411 249.003 246.449C248.494 245.964 247.991 245.48 247.528 244.95C247.018 244.463 246.639 243.854 246.427 243.18ZM246.427 243.18C246.641 243.849 247.02 244.453 247.528 244.937C247.998 245.461 248.507 245.945 249.015 246.423C250.046 247.373 251.102 248.297 252.145 249.22C254.279 251.035 256.303 252.976 258.205 255.034H257.98C258.753 254.001 259.504 252.954 260.234 251.895C260.595 251.359 260.955 250.822 261.297 250.286C261.649 249.761 261.96 249.208 262.224 248.632V248.742C262.005 247.495 261.689 246.249 261.354 245.008C261.02 243.768 260.665 242.541 260.285 241.313C259.906 240.086 259.487 238.878 258.997 237.689C258.766 237.095 258.508 236.513 258.231 235.939C257.978 235.377 257.634 234.862 257.214 234.414L257.323 234.453L246.253 234.317L246.298 234.272C246.272 235.753 246.272 237.233 246.298 238.71V240.932C246.33 241.701 246.343 242.444 246.427 243.18Z" fill="#263238"/>
<path d="M239.046 282.948C221.942 282.948 217.794 271.798 219.488 263.982C221.182 256.165 235.588 247.405 235.285 244.866C235.234 244.369 235.195 234.414 235.176 233.374H243.696C243.696 234.459 243.76 244.421 243.818 244.866C244.16 247.399 256.898 256.146 258.63 263.982C260.363 271.817 256.151 282.948 239.046 282.948Z" fill="#6FC886"/>
<path d="M221.362 55.8079C221 59.3921 219.65 62.8043 217.462 65.6613C215.274 68.5184 212.336 70.7071 208.977 71.9819C205.618 73.2567 201.971 73.5671 198.446 72.8782C194.921 72.1893 191.657 70.5283 189.02 68.0819L179.36 69.5095L184.203 61.1115C182.991 58.1555 182.535 54.942 182.877 51.7639C183.466 46.688 186.027 42.0498 190.003 38.8551C193.98 35.6604 199.051 34.1668 204.118 34.6981C209.185 35.2294 213.839 37.7428 217.07 41.6933C220.302 45.6437 221.851 50.7129 221.381 55.8014L221.362 55.8079Z" fill="white"/>
<path d="M221.362 55.8079C220.988 59.3871 219.638 62.7936 217.46 65.653C216.914 66.3632 216.327 67.0405 215.701 67.6814C215.057 68.3 214.375 68.8781 213.66 69.4127C212.232 70.4891 210.66 71.3589 208.991 71.9967C207.32 72.6529 205.567 73.0725 203.781 73.2435C202.886 73.322 201.986 73.3393 201.089 73.2951C200.19 73.274 199.294 73.1811 198.41 73.0174C194.841 72.3564 191.525 70.7124 188.834 68.2693L189.066 68.3403L179.406 69.8326L178.704 69.9424L179.058 69.2964L183.875 60.8984V61.2279C182.735 58.4479 182.247 55.4427 182.446 52.4435C182.646 49.4443 183.529 46.5311 185.028 43.928C186.537 41.3444 188.609 39.1361 191.088 37.468C193.567 35.8228 196.386 34.7615 199.332 34.3632C202.279 33.965 205.277 34.2402 208.102 35.1682C210.902 36.1233 213.454 37.6924 215.573 39.7613C217.685 41.8223 219.304 44.3373 220.307 47.1169C221.309 49.8965 221.67 52.8681 221.362 55.8079ZM221.362 55.8079C221.67 52.8844 221.304 49.9292 220.295 47.1695C219.285 44.4098 217.657 41.9193 215.538 39.8895C213.418 37.8597 210.862 36.3448 208.067 35.4614C205.272 34.5779 202.312 34.3494 199.415 34.7935C196.543 35.228 193.808 36.3127 191.416 37.9654C189.048 39.6303 187.07 41.7929 185.62 44.3027C184.192 46.8202 183.351 49.6295 183.16 52.5198C182.981 55.4054 183.447 58.2946 184.525 60.9759L184.596 61.1503L184.5 61.3054L179.631 69.7034L179.283 69.193L188.982 67.83H189.117L189.214 67.9204C191.799 70.3495 195.008 72.0073 198.481 72.7073C199.347 72.8828 200.225 72.9908 201.108 73.0303C203.766 73.2144 206.433 72.8222 208.927 71.8804C210.598 71.2768 212.172 70.4278 213.596 69.361C215.045 68.3221 216.329 67.0673 217.402 65.64C219.603 62.7935 220.975 59.3898 221.362 55.8079Z" fill="#263238"/>
<path d="M210.318 57.4487C208.148 60.3772 205.373 62.8012 202.184 64.5547C198.997 62.7999 196.225 60.3761 194.056 57.4487C191.197 53.6502 191.339 47.7005 195.428 46.415C199.936 44.9938 202.184 51.8285 202.184 51.8285C202.184 51.8285 204.444 44.9486 208.946 46.415C213.022 47.7458 213.164 53.6502 210.318 57.4487Z" fill="#6FC886"/>
</svg>
